<?xml version="1.0" encoding="UTF-8" standalone="no"?>
<!DOCTYPE svg PUBLIC "-//W3C//DTD SVG 1.1//EN"
 "http://www.w3.org/Graphics/SVG/1.1/DTD/svg11.dtd">
<!-- Generated by graphviz version 14.1.2 (0)
 -->
<!-- Title: Tree Pages: 1 -->
<svg width="224pt" height="260pt"
 viewBox="0.00 0.00 224.00 260.00" xmlns="http://www.w3.org/2000/svg" xmlns:xlink="http://www.w3.org/1999/xlink">
<g id="graph0" class="graph" transform="scale(1 1) rotate(0) translate(4 256.31)">
<title>Tree</title>
<polygon fill="white" stroke="none" points="-4,4 -4,-256.31 220.1,-256.31 220.1,4 -4,4"/>
<!-- 1 -->
<g id="node1" class="node">
<title>1</title>
<ellipse fill="lightblue" stroke="black" cx="147.05" cy="-222.26" rx="30.05" ry="30.05"/>
<text xml:space="preserve" text-anchor="middle" x="147.05" y="-226.21" font-family="Times,serif" font-size="14.00">1</text>
<text xml:space="preserve" text-anchor="middle" x="147.05" y="-208.96" font-family="Times,serif" font-size="14.00">50</text>
</g>
<!-- 2 -->
<g id="node2" class="node">
<title>2</title>
<ellipse fill="lightblue" stroke="black" cx="108.05" cy="-126.16" rx="30.05" ry="30.05"/>
<text xml:space="preserve" text-anchor="middle" x="108.05" y="-130.11" font-family="Times,serif" font-size="14.00">2</text>
<text xml:space="preserve" text-anchor="middle" x="108.05" y="-112.86" font-family="Times,serif" font-size="14.00">20</text>
</g>
<!-- 1&#45;&gt;2 -->
<g id="edge1" class="edge">
<title>1&#45;&gt;2</title>
<path fill="none" stroke="black" d="M135.77,-194.04C131.97,-184.87 127.66,-174.47 123.59,-164.66"/>
<polygon fill="black" stroke="black" points="126.95,-163.61 119.89,-155.71 120.48,-166.29 126.95,-163.61"/>
</g>
<!-- 3 -->
<g id="node3" class="node">
<title>3</title>
<ellipse fill="lightblue" stroke="black" cx="186.05" cy="-126.16" rx="30.05" ry="30.05"/>
<text xml:space="preserve" text-anchor="middle" x="186.05" y="-130.11" font-family="Times,serif" font-size="14.00">3</text>
<text xml:space="preserve" text-anchor="middle" x="186.05" y="-112.86" font-family="Times,serif" font-size="14.00">30</text>
</g>
<!-- 1&#45;&gt;3 -->
<g id="edge2" class="edge">
<title>1&#45;&gt;3</title>
<path fill="none" stroke="black" d="M158.33,-194.04C162.13,-184.87 166.44,-174.47 170.51,-164.66"/>
<polygon fill="black" stroke="black" points="173.62,-166.29 174.22,-155.71 167.16,-163.61 173.62,-166.29"/>
</g>
<!-- 4 -->
<g id="node4" class="node">
<title>4</title>
<ellipse fill="lightblue" stroke="black" cx="30.05" cy="-30.05" rx="30.05" ry="30.05"/>
<text xml:space="preserve" text-anchor="middle" x="30.05" y="-34" font-family="Times,serif" font-size="14.00">4</text>
<text xml:space="preserve" text-anchor="middle" x="30.05" y="-16.75" font-family="Times,serif" font-size="14.00">10</text>
</g>
<!-- 2&#45;&gt;4 -->
<g id="edge3" class="edge">
<title>2&#45;&gt;4</title>
<path fill="none" stroke="black" d="M89.17,-102.38C79.28,-90.44 67.01,-75.64 56.22,-62.62"/>
<polygon fill="black" stroke="black" points="59.07,-60.58 50,-55.11 53.68,-65.05 59.07,-60.58"/>
</g>
<!-- 5 -->
<g id="node5" class="node">
<title>5</title>
<ellipse fill="lightblue" stroke="black" cx="108.05" cy="-30.05" rx="30.05" ry="30.05"/>
<text xml:space="preserve" text-anchor="middle" x="108.05" y="-34" font-family="Times,serif" font-size="14.00">5</text>
<text xml:space="preserve" text-anchor="middle" x="108.05" y="-16.75" font-family="Times,serif" font-size="14.00">40</text>
</g>
<!-- 2&#45;&gt;5 -->
<g id="edge4" class="edge">
<title>2&#45;&gt;5</title>
<path fill="none" stroke="black" d="M108.05,-95.64C108.05,-88.11 108.05,-79.87 108.05,-71.88"/>
<polygon fill="black" stroke="black" points="111.55,-71.98 108.05,-61.98 104.55,-71.98 111.55,-71.98"/>
</g>
<!-- 6 -->
<g id="node6" class="node">
<title>6</title>
<ellipse fill="lightblue" stroke="black" cx="186.05" cy="-30.05" rx="30.05" ry="30.05"/>
<text xml:space="preserve" text-anchor="middle" x="186.05" y="-34" font-family="Times,serif" font-size="14.00">6</text>
<text xml:space="preserve" text-anchor="middle" x="186.05" y="-16.75" font-family="Times,serif" font-size="14.00">15</text>
</g>
<!-- 3&#45;&gt;6 -->
<g id="edge5" class="edge">
<title>3&#45;&gt;6</title>
<path fill="none" stroke="black" d="M186.05,-95.64C186.05,-88.11 186.05,-79.87 186.05,-71.88"/>
<polygon fill="black" stroke="black" points="189.55,-71.98 186.05,-61.98 182.55,-71.98 189.55,-71.98"/>
</g>
</g>
</svg>
